<?xml version="1.0" encoding="UTF-8" standalone="no"?>
<!DOCTYPE svg PUBLIC "-//W3C//DTD SVG 1.1//EN"
 "http://www.w3.org/Graphics/SVG/1.1/DTD/svg11.dtd">
<!-- Generated by graphviz version 9.0.0 (20230911.1827)
 -->
<!-- Title: G Pages: 1 -->
<svg width="1263pt" height="1477pt"
 viewBox="0.00 0.00 1262.50 1476.50" xmlns="http://www.w3.org/2000/svg" xmlns:xlink="http://www.w3.org/1999/xlink">
<g id="graph0" class="graph" transform="scale(1 1) rotate(0) translate(36 1440.5)">
<title>G</title>
<polygon fill="#f7f7f7" stroke="none" points="-36,36 -36,-1440.5 1226.5,-1440.5 1226.5,36 -36,36"/>
<!-- appmodelscartitem -->
<g id="node1" class="node">
<title>appmodelscartitem</title>
<polygon fill="none" stroke="black" points="530.75,-778.38 367,-778.38 367,-425.12 530.75,-425.12 530.75,-778.38"/>
<polygon fill="#d3d3d3" stroke="none" points="367,-739.12 367,-778.38 530.75,-778.38 530.75,-739.12 367,-739.12"/>
<polygon fill="none" stroke="black" points="367,-739.12 367,-778.38 530.75,-778.38 530.75,-739.12 367,-739.12"/>
<text text-anchor="start" x="421.5" y="-754.08" font-family="Helvetica Neue" font-size="14.00" fill="#333333">CartItem</text>
<polygon fill="#ffffff" stroke="none" points="367,-699.88 367,-739.12 530.75,-739.12 530.75,-699.88 367,-699.88"/>
<polygon fill="none" stroke="black" points="367,-699.88 367,-739.12 530.75,-739.12 530.75,-699.88 367,-699.88"/>
<text text-anchor="start" x="378" y="-714.83" font-family="Helvetica Neue" font-size="14.00" fill="#333333">id (bigint)</text>
<polygon fill="#ffffff" stroke="none" points="367,-660.62 367,-699.88 530.75,-699.88 530.75,-660.62 367,-660.62"/>
<polygon fill="none" stroke="black" points="367,-660.62 367,-699.88 530.75,-699.88 530.75,-660.62 367,-660.62"/>
<text text-anchor="start" x="378" y="-675.58" font-family="Helvetica Neue" font-size="14.00" fill="#333333">user_id (bigint)</text>
<polygon fill="#ffffff" stroke="none" points="367,-621.38 367,-660.62 530.75,-660.62 530.75,-621.38 367,-621.38"/>
<polygon fill="none" stroke="black" points="367,-621.38 367,-660.62 530.75,-660.62 530.75,-621.38 367,-621.38"/>
<text text-anchor="start" x="378" y="-636.33" font-family="Helvetica Neue" font-size="14.00" fill="#333333">product_id (bigint)</text>
<polygon fill="#ffffff" stroke="none" points="367,-582.12 367,-621.38 530.75,-621.38 530.75,-582.12 367,-582.12"/>
<polygon fill="none" stroke="black" points="367,-582.12 367,-621.38 530.75,-621.38 530.75,-582.12 367,-582.12"/>
<text text-anchor="start" x="378" y="-597.08" font-family="Helvetica Neue" font-size="14.00" fill="#333333">quantity (integer)</text>
<polygon fill="#ffffff" stroke="none" points="367,-542.88 367,-582.12 530.75,-582.12 530.75,-542.88 367,-542.88"/>
<polygon fill="none" stroke="black" points="367,-542.88 367,-582.12 530.75,-582.12 530.75,-542.88 367,-542.88"/>
<text text-anchor="start" x="378" y="-557.83" font-family="Helvetica Neue" font-size="14.00" fill="#333333">price (decimal)</text>
<polygon fill="#ffffff" stroke="none" points="367,-503.62 367,-542.88 530.75,-542.88 530.75,-503.62 367,-503.62"/>
<polygon fill="none" stroke="black" points="367,-503.62 367,-542.88 530.75,-542.88 530.75,-503.62 367,-503.62"/>
<text text-anchor="start" x="378" y="-518.58" font-family="Helvetica Neue" font-size="14.00" fill="#333333">off (decimal)</text>
<polygon fill="#ffffff" stroke="none" points="367,-464.38 367,-503.62 530.75,-503.62 530.75,-464.38 367,-464.38"/>
<polygon fill="none" stroke="black" points="367,-464.38 367,-503.62 530.75,-503.62 530.75,-464.38 367,-464.38"/>
<text text-anchor="start" x="378" y="-479.32" font-family="Helvetica Neue" font-size="14.00" fill="#333333">created_at (datetime)</text>
<polygon fill="#ffffff" stroke="none" points="367,-425.12 367,-464.38 530.75,-464.38 530.75,-425.12 367,-425.12"/>
<polygon fill="none" stroke="black" points="367,-425.12 367,-464.38 530.75,-464.38 530.75,-425.12 367,-425.12"/>
<text text-anchor="start" x="378" y="-440.07" font-family="Helvetica Neue" font-size="14.00" fill="#333333">updated_at (datetime)</text>
</g>
<!-- appmodelsproduct -->
<g id="node2" class="node">
<title>appmodelsproduct</title>
<polygon fill="none" stroke="black" points="878.25,-549.5 679.25,-549.5 679.25,0 878.25,0 878.25,-549.5"/>
<polygon fill="#d3d3d3" stroke="none" points="679.25,-510.25 679.25,-549.5 878.25,-549.5 878.25,-510.25 679.25,-510.25"/>
<polygon fill="none" stroke="black" points="679.25,-510.25 679.25,-549.5 878.25,-549.5 878.25,-510.25 679.25,-510.25"/>
<text text-anchor="start" x="754.75" y="-525.2" font-family="Helvetica Neue" font-size="14.00" fill="#333333">Product</text>
<polygon fill="#ffffff" stroke="none" points="679.25,-471 679.25,-510.25 878.25,-510.25 878.25,-471 679.25,-471"/>
<polygon fill="none" stroke="black" points="679.25,-471 679.25,-510.25 878.25,-510.25 878.25,-471 679.25,-471"/>
<text text-anchor="start" x="690.25" y="-485.95" font-family="Helvetica Neue" font-size="14.00" fill="#333333">id (bigint)</text>
<polygon fill="#ffffff" stroke="none" points="679.25,-431.75 679.25,-471 878.25,-471 878.25,-431.75 679.25,-431.75"/>
<polygon fill="none" stroke="black" points="679.25,-431.75 679.25,-471 878.25,-471 878.25,-431.75 679.25,-431.75"/>
<text text-anchor="start" x="690.25" y="-446.7" font-family="Helvetica Neue" font-size="14.00" fill="#333333">name (string)</text>
<polygon fill="#ffffff" stroke="none" points="679.25,-392.5 679.25,-431.75 878.25,-431.75 878.25,-392.5 679.25,-392.5"/>
<polygon fill="none" stroke="black" points="679.25,-392.5 679.25,-431.75 878.25,-431.75 878.25,-392.5 679.25,-392.5"/>
<text text-anchor="start" x="690.25" y="-407.45" font-family="Helvetica Neue" font-size="14.00" fill="#333333">about (text)</text>
<polygon fill="#ffffff" stroke="none" points="679.25,-353.25 679.25,-392.5 878.25,-392.5 878.25,-353.25 679.25,-353.25"/>
<polygon fill="none" stroke="black" points="679.25,-353.25 679.25,-392.5 878.25,-392.5 878.25,-353.25 679.25,-353.25"/>
<text text-anchor="start" x="690.25" y="-368.2" font-family="Helvetica Neue" font-size="14.00" fill="#333333">price (decimal)</text>
<polygon fill="#ffffff" stroke="none" points="679.25,-314 679.25,-353.25 878.25,-353.25 878.25,-314 679.25,-314"/>
<polygon fill="none" stroke="black" points="679.25,-314 679.25,-353.25 878.25,-353.25 878.25,-314 679.25,-314"/>
<text text-anchor="start" x="690.25" y="-328.95" font-family="Helvetica Neue" font-size="14.00" fill="#333333">off (decimal)</text>
<polygon fill="#ffffff" stroke="none" points="679.25,-274.75 679.25,-314 878.25,-314 878.25,-274.75 679.25,-274.75"/>
<polygon fill="none" stroke="black" points="679.25,-274.75 679.25,-314 878.25,-314 878.25,-274.75 679.25,-274.75"/>
<text text-anchor="start" x="690.25" y="-289.7" font-family="Helvetica Neue" font-size="14.00" fill="#333333">quantity (integer)</text>
<polygon fill="#ffffff" stroke="none" points="679.25,-235.5 679.25,-274.75 878.25,-274.75 878.25,-235.5 679.25,-235.5"/>
<polygon fill="none" stroke="black" points="679.25,-235.5 679.25,-274.75 878.25,-274.75 878.25,-235.5 679.25,-235.5"/>
<text text-anchor="start" x="690.25" y="-250.45" font-family="Helvetica Neue" font-size="14.00" fill="#333333">rating_sum (integer)</text>
<polygon fill="#ffffff" stroke="none" points="679.25,-196.25 679.25,-235.5 878.25,-235.5 878.25,-196.25 679.25,-196.25"/>
<polygon fill="none" stroke="black" points="679.25,-196.25 679.25,-235.5 878.25,-235.5 878.25,-196.25 679.25,-196.25"/>
<text text-anchor="start" x="690.25" y="-211.2" font-family="Helvetica Neue" font-size="14.00" fill="#333333">rating_count (integer)</text>
<polygon fill="#ffffff" stroke="none" points="679.25,-157 679.25,-196.25 878.25,-196.25 878.25,-157 679.25,-157"/>
<polygon fill="none" stroke="black" points="679.25,-157 679.25,-196.25 878.25,-196.25 878.25,-157 679.25,-157"/>
<text text-anchor="start" x="690.25" y="-171.95" font-family="Helvetica Neue" font-size="14.00" fill="#333333">category (string)</text>
<polygon fill="#ffffff" stroke="none" points="679.25,-117.75 679.25,-157 878.25,-157 878.25,-117.75 679.25,-117.75"/>
<polygon fill="none" stroke="black" points="679.25,-117.75 679.25,-157 878.25,-157 878.25,-117.75 679.25,-117.75"/>
<text text-anchor="start" x="690.25" y="-132.7" font-family="Helvetica Neue" font-size="14.00" fill="#333333">availability_start_date (date)</text>
<polygon fill="#ffffff" stroke="none" points="679.25,-78.5 679.25,-117.75 878.25,-117.75 878.25,-78.5 679.25,-78.5"/>
<polygon fill="none" stroke="black" points="679.25,-78.5 679.25,-117.75 878.25,-117.75 878.25,-78.5 679.25,-78.5"/>
<text text-anchor="start" x="690.25" y="-93.45" font-family="Helvetica Neue" font-size="14.00" fill="#333333">availability_end_date (date)</text>
<polygon fill="#ffffff" stroke="none" points="679.25,-39.25 679.25,-78.5 878.25,-78.5 878.25,-39.25 679.25,-39.25"/>
<polygon fill="none" stroke="black" points="679.25,-39.25 679.25,-78.5 878.25,-78.5 878.25,-39.25 679.25,-39.25"/>
<text text-anchor="start" x="690.25" y="-54.2" font-family="Helvetica Neue" font-size="14.00" fill="#333333">created_at (datetime)</text>
<polygon fill="#ffffff" stroke="none" points="679.25,0 679.25,-39.25 878.25,-39.25 878.25,0 679.25,0"/>
<polygon fill="none" stroke="black" points="679.25,0 679.25,-39.25 878.25,-39.25 878.25,0 679.25,0"/>
<text text-anchor="start" x="690.25" y="-14.95" font-family="Helvetica Neue" font-size="14.00" fill="#333333">updated_at (datetime)</text>
</g>
<!-- appmodelscartitem&#45;&gt;appmodelsproduct -->
<g id="edge1" class="edge">
<title>appmodelscartitem:product_id&#45;&gt;appmodelsproduct:id</title>
<path fill="none" stroke="#f77f00" stroke-width="1.8" d="M539.59,-631.82C568.32,-602.8 658.16,-512.06 676.11,-493.92"/>
<polygon fill="#f77f00" stroke="#f77f00" stroke-width="1.8" points="538.21,-633.22 527.98,-637.16 534.27,-637.2 531.6,-639.89 531.6,-639.89 531.6,-639.89 534.27,-637.2 534.37,-643.49 538.21,-633.22"/>
<polygon fill="#f77f00" stroke="#f77f00" stroke-width="1.8" points="674.99,-487.94 682.1,-494.98 680.69,-496.4 673.59,-489.36 674.99,-487.94"/>
<polyline fill="none" stroke="#f77f00" stroke-width="1.8" points="679.25,-490.75 675.73,-494.3"/>
<text text-anchor="middle" x="605" y="-569.7" font-family="Helvetica Neue" font-size="14.00"> </text>
<text text-anchor="middle" x="575.6" y="-549.57" font-family="Helvetica Neue" font-size="14.00">BelongsTo</text>
<text text-anchor="middle" x="575.6" y="-532.32" font-family="Helvetica Neue" font-size="14.00">product</text>
</g>
<!-- appmodelsproduct&#45;&gt;appmodelsproduct -->
<g id="edge4" class="edge">
<title>appmodelsproduct&#45;&gt;appmodelsproduct</title>
<path fill="none" stroke="#003049" stroke-width="1.8" d="M748.93,-549.8C753.41,-592.45 763.35,-621.5 778.75,-621.5 792.58,-621.5 802.01,-598.05 807.03,-562.36"/>
<polygon fill="#003049" stroke="#003049" stroke-width="1.8" points="810.5,-562.85 808.24,-552.5 803.55,-562 810.5,-562.85"/>
<text text-anchor="middle" x="778.75" y="-625.45" font-family="Helvetica Neue" font-size="14.00"> </text>
<text text-anchor="middle" x="720.93" y="-602.62" font-family="Helvetica Neue" font-size="14.00">HasManyThrough</text>
<text text-anchor="middle" x="720.93" y="-585.37" font-family="Helvetica Neue" font-size="14.00">subProducts</text>
</g>
<!-- appmodelsimagelink -->
<g id="node4" class="node">
<title>appmodelsimagelink</title>
<polygon fill="none" stroke="black" points="1190.5,-588.5 1026.75,-588.5 1026.75,-353 1190.5,-353 1190.5,-588.5"/>
<polygon fill="#d3d3d3" stroke="none" points="1026.75,-549.25 1026.75,-588.5 1190.5,-588.5 1190.5,-549.25 1026.75,-549.25"/>
<polygon fill="none" stroke="black" points="1026.75,-549.25 1026.75,-588.5 1190.5,-588.5 1190.5,-549.25 1026.75,-549.25"/>
<text text-anchor="start" x="1076" y="-564.2" font-family="Helvetica Neue" font-size="14.00" fill="#333333">ImageLink</text>
<polygon fill="#ffffff" stroke="none" points="1026.75,-510 1026.75,-549.25 1190.5,-549.25 1190.5,-510 1026.75,-510"/>
<polygon fill="none" stroke="black" points="1026.75,-510 1026.75,-549.25 1190.5,-549.25 1190.5,-510 1026.75,-510"/>
<text text-anchor="start" x="1037.75" y="-524.95" font-family="Helvetica Neue" font-size="14.00" fill="#333333">id (bigint)</text>
<polygon fill="#ffffff" stroke="none" points="1026.75,-470.75 1026.75,-510 1190.5,-510 1190.5,-470.75 1026.75,-470.75"/>
<polygon fill="none" stroke="black" points="1026.75,-470.75 1026.75,-510 1190.5,-510 1190.5,-470.75 1026.75,-470.75"/>
<text text-anchor="start" x="1037.75" y="-485.7" font-family="Helvetica Neue" font-size="14.00" fill="#333333">product_id (bigint)</text>
<polygon fill="#ffffff" stroke="none" points="1026.75,-431.5 1026.75,-470.75 1190.5,-470.75 1190.5,-431.5 1026.75,-431.5"/>
<polygon fill="none" stroke="black" points="1026.75,-431.5 1026.75,-470.75 1190.5,-470.75 1190.5,-431.5 1026.75,-431.5"/>
<text text-anchor="start" x="1037.75" y="-446.45" font-family="Helvetica Neue" font-size="14.00" fill="#333333">link (string)</text>
<polygon fill="#ffffff" stroke="none" points="1026.75,-392.25 1026.75,-431.5 1190.5,-431.5 1190.5,-392.25 1026.75,-392.25"/>
<polygon fill="none" stroke="black" points="1026.75,-392.25 1026.75,-431.5 1190.5,-431.5 1190.5,-392.25 1026.75,-392.25"/>
<text text-anchor="start" x="1037.75" y="-407.2" font-family="Helvetica Neue" font-size="14.00" fill="#333333">created_at (datetime)</text>
<polygon fill="#ffffff" stroke="none" points="1026.75,-353 1026.75,-392.25 1190.5,-392.25 1190.5,-353 1026.75,-353"/>
<polygon fill="none" stroke="black" points="1026.75,-353 1026.75,-392.25 1190.5,-392.25 1190.5,-353 1026.75,-353"/>
<text text-anchor="start" x="1037.75" y="-367.95" font-family="Helvetica Neue" font-size="14.00" fill="#333333">updated_at (datetime)</text>
</g>
<!-- appmodelsproduct&#45;&gt;appmodelsimagelink -->
<g id="edge3" class="edge">
<title>appmodelsproduct:id&#45;&gt;appmodelsimagelink:product_id</title>
<path fill="none" stroke="#fcbf49" stroke-width="1.8" d="M878.25,-490.75C878.25,-490.75 978.18,-490.75 1014.09,-490.75"/>
<polygon fill="#fcbf49" stroke="#fcbf49" stroke-width="1.8" points="1016.15,-490.75 1026.15,-495.25 1021.75,-490.75 1025.55,-490.75 1025.55,-490.75 1025.55,-490.75 1021.75,-490.75 1026.15,-486.25 1016.15,-490.75"/>
<text text-anchor="middle" x="952.5" y="-494.7" font-family="Helvetica Neue" font-size="14.00"> </text>
<text text-anchor="middle" x="917.67" y="-477.45" font-family="Helvetica Neue" font-size="14.00">HasMany</text>
<text text-anchor="middle" x="917.67" y="-460.2" font-family="Helvetica Neue" font-size="14.00">images</text>
</g>
<!-- appmodelscategory -->
<g id="node3" class="node">
<title>appmodelscategory</title>
<polygon fill="none" stroke="black" points="530.75,-353.25 367,-353.25 367,-196.25 530.75,-196.25 530.75,-353.25"/>
<polygon fill="#d3d3d3" stroke="none" points="367,-314 367,-353.25 530.75,-353.25 530.75,-314 367,-314"/>
<polygon fill="none" stroke="black" points="367,-314 367,-353.25 530.75,-353.25 530.75,-314 367,-314"/>
<text text-anchor="start" x="421.12" y="-328.95" font-family="Helvetica Neue" font-size="14.00" fill="#333333">Category</text>
<polygon fill="#ffffff" stroke="none" points="367,-274.75 367,-314 530.75,-314 530.75,-274.75 367,-274.75"/>
<polygon fill="none" stroke="black" points="367,-274.75 367,-314 530.75,-314 530.75,-274.75 367,-274.75"/>
<text text-anchor="start" x="378" y="-289.7" font-family="Helvetica Neue" font-size="14.00" fill="#333333">name (string)</text>
<polygon fill="#ffffff" stroke="none" points="367,-235.5 367,-274.75 530.75,-274.75 530.75,-235.5 367,-235.5"/>
<polygon fill="none" stroke="black" points="367,-235.5 367,-274.75 530.75,-274.75 530.75,-235.5 367,-235.5"/>
<text text-anchor="start" x="378" y="-250.45" font-family="Helvetica Neue" font-size="14.00" fill="#333333">created_at (datetime)</text>
<polygon fill="#ffffff" stroke="none" points="367,-196.25 367,-235.5 530.75,-235.5 530.75,-196.25 367,-196.25"/>
<polygon fill="none" stroke="black" points="367,-196.25 367,-235.5 530.75,-235.5 530.75,-196.25 367,-196.25"/>
<text text-anchor="start" x="378" y="-211.2" font-family="Helvetica Neue" font-size="14.00" fill="#333333">updated_at (datetime)</text>
</g>
<!-- appmodelscategory&#45;&gt;appmodelsproduct -->
<g id="edge2" class="edge">
<title>appmodelscategory:id&#45;&gt;appmodelsproduct:category_id</title>
<path fill="none" stroke="#fcbf49" stroke-width="1.8" d="M530.92,-274.75C571.74,-274.75 621.87,-274.75 666.26,-274.75"/>
<polygon fill="#fcbf49" stroke="#fcbf49" stroke-width="1.8" points="668.32,-274.75 678.32,-279.25 673.92,-274.75 677.71,-274.75 677.71,-274.75 677.71,-274.75 673.92,-274.75 678.32,-270.25 668.32,-274.75"/>
<text text-anchor="middle" x="605" y="-278.7" font-family="Helvetica Neue" font-size="14.00"> </text>
<text text-anchor="middle" x="570.09" y="-261.45" font-family="Helvetica Neue" font-size="14.00">HasMany</text>
<text text-anchor="middle" x="570.09" y="-244.2" font-family="Helvetica Neue" font-size="14.00">products</text>
</g>
<!-- appmodelsuser -->
<g id="node5" class="node">
<title>appmodelsuser</title>
<polygon fill="none" stroke="black" points="208,-521 10.5,-521 10.5,-128.5 208,-128.5 208,-521"/>
<polygon fill="#d3d3d3" stroke="none" points="10.5,-481.75 10.5,-521 208,-521 208,-481.75 10.5,-481.75"/>
<polygon fill="none" stroke="black" points="10.5,-481.75 10.5,-521 208,-521 208,-481.75 10.5,-481.75"/>
<text text-anchor="start" x="95.38" y="-496.7" font-family="Helvetica Neue" font-size="14.00" fill="#333333">User</text>
<polygon fill="#ffffff" stroke="none" points="10.5,-442.5 10.5,-481.75 208,-481.75 208,-442.5 10.5,-442.5"/>
<polygon fill="none" stroke="black" points="10.5,-442.5 10.5,-481.75 208,-481.75 208,-442.5 10.5,-442.5"/>
<text text-anchor="start" x="21.5" y="-457.45" font-family="Helvetica Neue" font-size="14.00" fill="#333333">id (bigint)</text>
<polygon fill="#ffffff" stroke="none" points="10.5,-403.25 10.5,-442.5 208,-442.5 208,-403.25 10.5,-403.25"/>
<polygon fill="none" stroke="black" points="10.5,-403.25 10.5,-442.5 208,-442.5 208,-403.25 10.5,-403.25"/>
<text text-anchor="start" x="21.5" y="-418.2" font-family="Helvetica Neue" font-size="14.00" fill="#333333">name (string)</text>
<polygon fill="#ffffff" stroke="none" points="10.5,-364 10.5,-403.25 208,-403.25 208,-364 10.5,-364"/>
<polygon fill="none" stroke="black" points="10.5,-364 10.5,-403.25 208,-403.25 208,-364 10.5,-364"/>
<text text-anchor="start" x="21.5" y="-378.95" font-family="Helvetica Neue" font-size="14.00" fill="#333333">email (string)</text>
<polygon fill="#ffffff" stroke="none" points="10.5,-324.75 10.5,-364 208,-364 208,-324.75 10.5,-324.75"/>
<polygon fill="none" stroke="black" points="10.5,-324.75 10.5,-364 208,-364 208,-324.75 10.5,-324.75"/>
<text text-anchor="start" x="21.5" y="-339.7" font-family="Helvetica Neue" font-size="14.00" fill="#333333">email_verified_at (datetime)</text>
<polygon fill="#ffffff" stroke="none" points="10.5,-285.5 10.5,-324.75 208,-324.75 208,-285.5 10.5,-285.5"/>
<polygon fill="none" stroke="black" points="10.5,-285.5 10.5,-324.75 208,-324.75 208,-285.5 10.5,-285.5"/>
<text text-anchor="start" x="21.5" y="-300.45" font-family="Helvetica Neue" font-size="14.00" fill="#333333">balance (decimal)</text>
<polygon fill="#ffffff" stroke="none" points="10.5,-246.25 10.5,-285.5 208,-285.5 208,-246.25 10.5,-246.25"/>
<polygon fill="none" stroke="black" points="10.5,-246.25 10.5,-285.5 208,-285.5 208,-246.25 10.5,-246.25"/>
<text text-anchor="start" x="21.5" y="-261.2" font-family="Helvetica Neue" font-size="14.00" fill="#333333">password (string)</text>
<polygon fill="#ffffff" stroke="none" points="10.5,-207 10.5,-246.25 208,-246.25 208,-207 10.5,-207"/>
<polygon fill="none" stroke="black" points="10.5,-207 10.5,-246.25 208,-246.25 208,-207 10.5,-207"/>
<text text-anchor="start" x="21.5" y="-221.95" font-family="Helvetica Neue" font-size="14.00" fill="#333333">remember_token (string)</text>
<polygon fill="#ffffff" stroke="none" points="10.5,-167.75 10.5,-207 208,-207 208,-167.75 10.5,-167.75"/>
<polygon fill="none" stroke="black" points="10.5,-167.75 10.5,-207 208,-207 208,-167.75 10.5,-167.75"/>
<text text-anchor="start" x="21.5" y="-182.7" font-family="Helvetica Neue" font-size="14.00" fill="#333333">created_at (datetime)</text>
<polygon fill="#ffffff" stroke="none" points="10.5,-128.5 10.5,-167.75 208,-167.75 208,-128.5 10.5,-128.5"/>
<polygon fill="none" stroke="black" points="10.5,-128.5 10.5,-167.75 208,-167.75 208,-128.5 10.5,-128.5"/>
<text text-anchor="start" x="21.5" y="-143.45" font-family="Helvetica Neue" font-size="14.00" fill="#333333">updated_at (datetime)</text>
</g>
<!-- appmodelsuser&#45;&gt;appmodelscartitem -->
<g id="edge6" class="edge">
<title>appmodelsuser:id&#45;&gt;appmodelscartitem:user_id</title>
<path fill="none" stroke="#fcbf49" stroke-width="1.8" d="M209.25,-461.75C209.25,-461.75 328.42,-627.18 359.6,-670.48"/>
<polygon fill="#fcbf49" stroke="#fcbf49" stroke-width="1.8" points="360.8,-672.15 363,-682.89 364.08,-676.69 366.3,-679.77 366.3,-679.77 366.3,-679.77 364.08,-676.69 370.3,-677.63 360.8,-672.15"/>
<text text-anchor="middle" x="292.75" y="-582.7" font-family="Helvetica Neue" font-size="14.00"> </text>
<text text-anchor="middle" x="255.93" y="-552.82" font-family="Helvetica Neue" font-size="14.00">HasMany</text>
<text text-anchor="middle" x="255.93" y="-535.57" font-family="Helvetica Neue" font-size="14.00">cart</text>
</g>
<!-- appmodelsuser&#45;&gt;appmodelsproduct -->
<g id="edge5" class="edge">
<title>appmodelsuser&#45;&gt;appmodelsproduct</title>
<path fill="none" stroke="#003049" stroke-width="1.8" d="M208.42,-255.07C280.9,-203.62 367,-142.5 367,-142.5 367,-142.5 530.75,-142.5 530.75,-142.5 530.75,-142.5 602.1,-180.7 668.1,-216.04"/>
<polygon fill="#003049" stroke="#003049" stroke-width="1.8" points="666.19,-218.99 676.66,-220.63 669.5,-212.82 666.19,-218.99"/>
<text text-anchor="middle" x="448.88" y="-146.7" font-family="Helvetica Neue" font-size="14.00"> </text>
<text text-anchor="middle" x="374.04" y="-129.2" font-family="Helvetica Neue" font-size="14.00">HasManyThrough</text>
<text text-anchor="middle" x="374.04" y="-111.95" font-family="Helvetica Neue" font-size="14.00">favorites</text>
</g>
<!-- appmodelsfavorite -->
<g id="node6" class="node">
<title>appmodelsfavorite</title>
<polygon fill="none" stroke="black" points="191.12,-788.88 27.38,-788.88 27.38,-592.62 191.12,-592.62 191.12,-788.88"/>
<polygon fill="#d3d3d3" stroke="none" points="27.38,-749.62 27.38,-788.88 191.12,-788.88 191.12,-749.62 27.38,-749.62"/>
<polygon fill="none" stroke="black" points="27.38,-749.62 27.38,-788.88 191.12,-788.88 191.12,-749.62 27.38,-749.62"/>
<text text-anchor="start" x="84.5" y="-764.58" font-family="Helvetica Neue" font-size="14.00" fill="#333333">Favorite</text>
<polygon fill="#ffffff" stroke="none" points="27.38,-710.38 27.38,-749.62 191.12,-749.62 191.12,-710.38 27.38,-710.38"/>
<polygon fill="none" stroke="black" points="27.38,-710.38 27.38,-749.62 191.12,-749.62 191.12,-710.38 27.38,-710.38"/>
<text text-anchor="start" x="38.38" y="-725.33" font-family="Helvetica Neue" font-size="14.00" fill="#333333">user_id (bigint)</text>
<polygon fill="#ffffff" stroke="none" points="27.38,-671.12 27.38,-710.38 191.12,-710.38 191.12,-671.12 27.38,-671.12"/>
<polygon fill="none" stroke="black" points="27.38,-671.12 27.38,-710.38 191.12,-710.38 191.12,-671.12 27.38,-671.12"/>
<text text-anchor="start" x="38.38" y="-686.08" font-family="Helvetica Neue" font-size="14.00" fill="#333333">product_id (bigint)</text>
<polygon fill="#ffffff" stroke="none" points="27.38,-631.88 27.38,-671.12 191.12,-671.12 191.12,-631.88 27.38,-631.88"/>
<polygon fill="none" stroke="black" points="27.38,-631.88 27.38,-671.12 191.12,-671.12 191.12,-631.88 27.38,-631.88"/>
<text text-anchor="start" x="38.38" y="-646.83" font-family="Helvetica Neue" font-size="14.00" fill="#333333">created_at (datetime)</text>
<polygon fill="#ffffff" stroke="none" points="27.38,-592.62 27.38,-631.88 191.12,-631.88 191.12,-592.62 27.38,-592.62"/>
<polygon fill="none" stroke="black" points="27.38,-592.62 27.38,-631.88 191.12,-631.88 191.12,-592.62 27.38,-592.62"/>
<text text-anchor="start" x="38.38" y="-607.58" font-family="Helvetica Neue" font-size="14.00" fill="#333333">updated_at (datetime)</text>
</g>
<!-- appmodelsofferproduct -->
<g id="node7" class="node">
<title>appmodelsofferproduct</title>
<polygon fill="none" stroke="black" points="218.5,-1096.5 0,-1096.5 0,-861 218.5,-861 218.5,-1096.5"/>
<polygon fill="#d3d3d3" stroke="none" points="0,-1057.25 0,-1096.5 218.5,-1096.5 218.5,-1057.25 0,-1057.25"/>
<polygon fill="none" stroke="black" points="0,-1057.25 0,-1096.5 218.5,-1096.5 218.5,-1057.25 0,-1057.25"/>
<text text-anchor="start" x="69.5" y="-1072.2" font-family="Helvetica Neue" font-size="14.00" fill="#333333">OfferProduct</text>
<polygon fill="#ffffff" stroke="none" points="0,-1018 0,-1057.25 218.5,-1057.25 218.5,-1018 0,-1018"/>
<polygon fill="none" stroke="black" points="0,-1018 0,-1057.25 218.5,-1057.25 218.5,-1018 0,-1018"/>
<text text-anchor="start" x="11" y="-1032.95" font-family="Helvetica Neue" font-size="14.00" fill="#333333">offer_id (bigint)</text>
<polygon fill="#ffffff" stroke="none" points="0,-978.75 0,-1018 218.5,-1018 218.5,-978.75 0,-978.75"/>
<polygon fill="none" stroke="black" points="0,-978.75 0,-1018 218.5,-1018 218.5,-978.75 0,-978.75"/>
<text text-anchor="start" x="11" y="-993.7" font-family="Helvetica Neue" font-size="14.00" fill="#333333">sub_product_id (bigint)</text>
<polygon fill="#ffffff" stroke="none" points="0,-939.5 0,-978.75 218.5,-978.75 218.5,-939.5 0,-939.5"/>
<polygon fill="none" stroke="black" points="0,-939.5 0,-978.75 218.5,-978.75 218.5,-939.5 0,-939.5"/>
<text text-anchor="start" x="11" y="-954.45" font-family="Helvetica Neue" font-size="14.00" fill="#333333">sub_product_quantity (integer)</text>
<polygon fill="#ffffff" stroke="none" points="0,-900.25 0,-939.5 218.5,-939.5 218.5,-900.25 0,-900.25"/>
<polygon fill="none" stroke="black" points="0,-900.25 0,-939.5 218.5,-939.5 218.5,-900.25 0,-900.25"/>
<text text-anchor="start" x="11" y="-915.2" font-family="Helvetica Neue" font-size="14.00" fill="#333333">created_at (datetime)</text>
<polygon fill="#ffffff" stroke="none" points="0,-861 0,-900.25 218.5,-900.25 218.5,-861 0,-861"/>
<polygon fill="none" stroke="black" points="0,-861 0,-900.25 218.5,-900.25 218.5,-861 0,-861"/>
<text text-anchor="start" x="11" y="-875.95" font-family="Helvetica Neue" font-size="14.00" fill="#333333">updated_at (datetime)</text>
</g>
<!-- appmodelsratingrecord -->
<g id="node8" class="node">
<title>appmodelsratingrecord</title>
<polygon fill="none" stroke="black" points="191.12,-1404.5 27.38,-1404.5 27.38,-1169 191.12,-1169 191.12,-1404.5"/>
<polygon fill="#d3d3d3" stroke="none" points="27.38,-1365.25 27.38,-1404.5 191.12,-1404.5 191.12,-1365.25 27.38,-1365.25"/>
<polygon fill="none" stroke="black" points="27.38,-1365.25 27.38,-1404.5 191.12,-1404.5 191.12,-1365.25 27.38,-1365.25"/>
<text text-anchor="start" x="66.88" y="-1380.2" font-family="Helvetica Neue" font-size="14.00" fill="#333333">RatingRecord</text>
<polygon fill="#ffffff" stroke="none" points="27.38,-1326 27.38,-1365.25 191.12,-1365.25 191.12,-1326 27.38,-1326"/>
<polygon fill="none" stroke="black" points="27.38,-1326 27.38,-1365.25 191.12,-1365.25 191.12,-1326 27.38,-1326"/>
<text text-anchor="start" x="38.38" y="-1340.95" font-family="Helvetica Neue" font-size="14.00" fill="#333333">user_id (bigint)</text>
<polygon fill="#ffffff" stroke="none" points="27.38,-1286.75 27.38,-1326 191.12,-1326 191.12,-1286.75 27.38,-1286.75"/>
<polygon fill="none" stroke="black" points="27.38,-1286.75 27.38,-1326 191.12,-1326 191.12,-1286.75 27.38,-1286.75"/>
<text text-anchor="start" x="38.38" y="-1301.7" font-family="Helvetica Neue" font-size="14.00" fill="#333333">product_id (bigint)</text>
<polygon fill="#ffffff" stroke="none" points="27.38,-1247.5 27.38,-1286.75 191.12,-1286.75 191.12,-1247.5 27.38,-1247.5"/>
<polygon fill="none" stroke="black" points="27.38,-1247.5 27.38,-1286.75 191.12,-1286.75 191.12,-1247.5 27.38,-1247.5"/>
<text text-anchor="start" x="38.38" y="-1262.45" font-family="Helvetica Neue" font-size="14.00" fill="#333333">star_count (integer)</text>
<polygon fill="#ffffff" stroke="none" points="27.38,-1208.25 27.38,-1247.5 191.12,-1247.5 191.12,-1208.25 27.38,-1208.25"/>
<polygon fill="none" stroke="black" points="27.38,-1208.25 27.38,-1247.5 191.12,-1247.5 191.12,-1208.25 27.38,-1208.25"/>
<text text-anchor="start" x="38.38" y="-1223.2" font-family="Helvetica Neue" font-size="14.00" fill="#333333">created_at (datetime)</text>
<polygon fill="#ffffff" stroke="none" points="27.38,-1169 27.38,-1208.25 191.12,-1208.25 191.12,-1169 27.38,-1169"/>
<polygon fill="none" stroke="black" points="27.38,-1169 27.38,-1208.25 191.12,-1208.25 191.12,-1169 27.38,-1169"/>
<text text-anchor="start" x="38.38" y="-1183.95" font-family="Helvetica Neue" font-size="14.00" fill="#333333">updated_at (datetime)</text>
</g>
</g>
</svg>
